<?xml version="1.0" encoding="UTF-8" standalone="no"?>
<svg
   xmlns:dc="http://purl.org/dc/elements/1.1/"
   xmlns:cc="http://creativecommons.org/ns#"
   xmlns:rdf="http://www.w3.org/1999/02/22-rdf-syntax-ns#"
   xmlns:svg="http://www.w3.org/2000/svg"
   xmlns="http://www.w3.org/2000/svg"
   xmlns:sodipodi="http://sodipodi.sourceforge.net/DTD/sodipodi-0.dtd"
   xmlns:inkscape="http://www.inkscape.org/namespaces/inkscape"
   width="8in"
   height="8in"
   viewBox="0 0 203.2 203.20001"
   version="1.1"
   id="svg8"
   inkscape:version="1.0.2 (e86c8708, 2021-01-15)"
   sodipodi:docname="moodsic-icon.svg">
  <defs
     id="defs2">
    <mask
       maskUnits="userSpaceOnUse"
       id="mask865">
      <rect
         style="fill:#808080;stroke-width:0.264583"
         id="rect867"
         width="21.461052"
         height="35.470352"
         x="0"
         y="-23.845615"
         ry="2.8051653" />
    </mask>
  </defs>
  <sodipodi:namedview
     id="base"
     pagecolor="#ffffff"
     bordercolor="#666666"
     borderopacity="1.0"
     inkscape:pageopacity="0.0"
     inkscape:pageshadow="2"
     inkscape:zoom="0.46205901"
     inkscape:cx="475.03075"
     inkscape:cy="459.85339"
     inkscape:document-units="mm"
     inkscape:current-layer="layer1"
     inkscape:document-rotation="0"
     showgrid="false"
     inkscape:window-width="1252"
     inkscape:window-height="912"
     inkscape:window-x="0"
     inkscape:window-y="25"
     inkscape:window-maximized="0"
     units="in" />
  <metadata
     id="metadata5">
    <rdf:RDF>
      <cc:Work
         rdf:about="">
        <dc:format>image/svg+xml</dc:format>
        <dc:type
           rdf:resource="http://purl.org/dc/dcmitype/StillImage" />
        <dc:title></dc:title>
      </cc:Work>
    </rdf:RDF>
  </metadata>
  <g
     inkscape:label="Layer 1"
     inkscape:groupmode="layer"
     id="layer1">
    <path
       style="fill:#000000;stroke-width:0.332039"
       id="path925"
       d="" />
    <path
       style="fill:#000000;stroke-width:0.332039"
       id="path923"
       d="" />
    <path
       style="fill:#000000;stroke-width:0.332039"
       id="path921"
       d="" />
    <path
       style="fill:#000000;stroke-width:0.332039"
       id="path951"
       d="" />
    <path
       style="fill:#000000;stroke-width:0.332039"
       id="path949"
       d="" />
    <path
       style="fill:#000000;stroke-width:0.332039"
       id="path947"
       d="" />
    <path
       style="fill:#000000;stroke-width:0.264583"
       id="path969"
       d="" />
    <path
       style="fill:#000000;stroke-width:0.264583"
       id="path967"
       d="" />
    <path
       style="fill:#000000;stroke-width:0.264583"
       id="path999"
       d="" />
    <g
       id="g1016"
       transform="translate(0,16.324515)">
      <circle
         style="fill:#ffdd04;fill-opacity:1;stroke-width:0.618667"
         id="path902"
         cx="71.894829"
         cy="87.595497"
         r="36.750256" />
      <path
         style="fill:#ffdd04;fill-opacity:1;stroke-width:0.281324"
         d="m 87.801542,20.715542 c 0.07157,0.944483 -0.114077,1.761941 -0.586651,2.582831 -1.261686,2.191796 -2.307257,2.496147 -7.428194,2.162221 -11.40064,-0.743424 -22.426577,1.175164 -32.575832,5.668415 -3.97494,1.75978 -10.247998,5.474479 -13.532526,8.013499 C 23.452555,47.04733 16.362171,56.500387 11.397009,68.848471 9.8811891,72.618218 9.1778105,73.533125 7.4200102,74.021412 5.0648839,74.675642 3.0400735,73.749125 1.9667584,71.526119 1.2295284,69.9992 1.3337394,69.092939 2.6488684,65.593941 7.0875225,53.784638 14.631545,43.124519 24.891082,34.164456 c 3.373907,-2.946554 13.998,-9.641819 18.160843,-11.445448 12.516666,-5.421518 24.921441,-7.547551 38.147165,-6.53798 4.705797,0.359207 6.372622,1.503903 6.602205,4.534097 z m -3.98755,15.637703 c 0.732917,2.185171 -0.212813,4.45166 -2.308449,5.532305 -1.087905,0.561022 -1.861221,0.654798 -4.849933,0.588291 -11.900537,-0.264823 -22.690794,3.117253 -31.938643,10.010781 -7.591722,5.659 -12.376206,11.600502 -16.49292,20.481378 -1.442023,3.110819 -1.81091,3.687907 -2.725623,4.263999 -2.001372,1.260479 -4.462987,1.003366 -5.964133,-0.622964 -1.540323,-1.668768 -1.570351,-3.572117 -0.109094,-6.914125 8.900308,-20.355647 28.180426,-34.290725 50.283338,-36.343236 3.440871,-0.319528 8.817627,-0.34982 10.436061,-0.0588 1.669341,0.300171 3.160266,1.544453 3.669396,3.062371 z m -4.038665,19.196889 c 0.291863,1.911153 -0.941501,4.247557 -2.553271,4.836999 -0.330729,0.120965 -2.569145,0.421204 -4.974231,0.667224 -2.405086,0.246007 -5.478658,0.775891 -6.830126,1.177519 -3.539497,1.051838 -7.531692,3.103734 -10.282605,5.285015 -4.069978,3.227195 -6.483095,6.124741 -8.901483,10.688438 -1.094668,2.06571 -1.529683,2.631717 -2.485176,3.233503 -1.919534,1.208944 -3.76515,1.087276 -5.411293,-0.356707 -1.874708,-1.644485 -2.178142,-3.57477 -0.966358,-6.147403 2.014642,-4.277113 5.455878,-8.963083 9.162974,-12.477303 2.608575,-2.472865 9.257361,-6.667522 12.610386,-7.955737 6.73382,-2.587197 15.701214,-3.72246 18.295584,-2.316206 1.198438,0.649596 2.124842,1.984178 2.335623,3.364694 z"
         id="path894"
         sodipodi:nodetypes="cssssssssscsccssssssssssscssssssssscscc" />
      <path
         style="fill:#ffffff;fill-opacity:1;stroke-width:0.229914"
         d="m 77.341579,57.77552 c 0.238529,1.561903 -0.769447,3.471346 -2.086677,3.953071 -0.270291,0.09887 -2.099653,0.344233 -4.065226,0.545295 -1.965574,0.201051 -4.477473,0.634101 -5.581968,0.962334 -2.89268,0.859623 -6.15533,2.53655 -8.403534,4.319216 -3.326217,2.637448 -5.298354,5.005489 -7.274799,8.735203 -0.894625,1.688215 -1.250145,2.150789 -2.031028,2.642602 -1.568752,0.988019 -3.077095,0.888585 -4.422417,-0.291521 -1.532117,-1.343966 -1.780101,-2.921506 -0.789766,-5.024008 1.646483,-3.495501 4.458857,-7.325144 7.488509,-10.197164 2.131876,-2.020966 7.565642,-5.449079 10.305926,-6.501883 5.503263,-2.114405 12.831928,-3.042207 14.952195,-1.892936 0.979433,0.530887 1.736543,1.621585 1.908806,2.749821 z"
         id="path894-7"
         sodipodi:nodetypes="ssssssssscsccs" />
      <g
         id="g1001"
         style="fill:#269af2;fill-opacity:1"
         transform="matrix(1.2554741,0,0,1.2554741,-233.51777,-325.92478)">
        <path
           style="fill:#269af2;fill-opacity:1;stroke-width:0.264583"
           d="m 234.29212,382.59287 c 0.191,-0.0764 0.4192,-0.067 0.50712,0.0209 0.0879,0.0879 -0.0684,0.15045 -0.34726,0.13896 -0.30823,-0.0127 -0.37092,-0.0754 -0.15986,-0.15985 z m -16.08997,-41.9879 c 0,-0.0549 0.20836,-0.2633 0.46302,-0.46302 0.41964,-0.32911 0.429,-0.31975 0.0999,0.0999 -0.34565,0.44073 -0.56292,0.58089 -0.56292,0.36313 z m 69.25468,-40.82117 c 0.1819,-0.0734 0.47956,-0.0734 0.66146,0 0.1819,0.0734 0.0331,0.13346 -0.33073,0.13346 -0.3638,0 -0.51263,-0.0601 -0.33073,-0.13346 z m 3.19154,-0.006 c 0.19099,-0.0764 0.4192,-0.067 0.50712,0.0209 0.0879,0.0879 -0.0684,0.15045 -0.34727,0.13897 -0.30822,-0.0127 -0.37092,-0.0754 -0.15985,-0.15986 z"
           id="path1007" />
        <path
           style="fill:#269af2;fill-opacity:1;stroke-width:0.264583"
           d="m 257.57984,382.57519 c 12.56269,-0.038 33.04143,-0.038 45.50834,10e-6 12.4669,0.038 2.18834,0.0691 -22.84124,0.0691 -25.02958,0 -35.22978,-0.0311 -22.6671,-0.0691 z m 71.76819,-45.99342 c 0.0127,-0.30822 0.0754,-0.37092 0.15985,-0.15985 0.0764,0.191 0.067,0.4192 -0.0209,0.50712 -0.0879,0.0879 -0.15045,-0.0684 -0.13897,-0.34727 z m -82.62049,-17.4889 c 0.19099,-0.0764 0.4192,-0.067 0.50712,0.0209 0.0879,0.0879 -0.0683,0.15045 -0.34727,0.13896 -0.30822,-0.0127 -0.37092,-0.0754 -0.15985,-0.15985 z m 1.5875,0 c 0.19099,-0.0764 0.4192,-0.067 0.50712,0.0209 0.0879,0.0879 -0.0684,0.15045 -0.34727,0.13896 -0.30822,-0.0127 -0.37092,-0.0754 -0.15985,-0.15985 z m 69.33669,-7.69061 c -0.32911,-0.41964 -0.31975,-0.429 0.0999,-0.0999 0.25467,0.19973 0.46302,0.40808 0.46302,0.46303 0,0.21776 -0.21727,0.0776 -0.56291,-0.36313 z m -28.87198,-11.62995 c 0.32742,-0.0631 0.8632,-0.0631 1.19063,0 0.32742,0.0631 0.0595,0.11466 -0.59532,0.11466 -0.65484,0 -0.92273,-0.0516 -0.59531,-0.11466 z"
           id="path1005" />
        <path
           style="fill:#269af2;fill-opacity:1;stroke-width:0.264583"
           d="m 230.63757,382.09817 c -9.15262,-1.96269 -16.35065,-8.83728 -18.82353,-17.97768 -0.83078,-3.07077 -0.84182,-8.88465 -0.0228,-11.98915 1.19425,-4.52665 3.55112,-8.55807 6.84441,-11.70729 3.01311,-2.88131 6.15198,-4.71871 9.9901,-5.8479 1.14201,-0.33598 2.1101,-0.73158 2.15133,-0.8791 0.97804,-3.50005 1.61378,-5.08436 2.71933,-6.77674 4.20239,-6.43307 12.16896,-9.26085 19.54224,-6.93663 1.43981,0.45386 1.50263,0.45336 1.78263,-0.0143 5.27787,-8.8152 13.0295,-15.09885 22.41431,-18.16955 6.75202,-2.20925 15.45175,-2.46573 22.41691,-0.66087 9.76873,2.53133 18.32724,8.84939 23.93781,17.67134 3.27218,5.14512 5.36476,11.70962 5.89078,18.47957 l 0.17664,2.27355 1.27344,0.32637 c 3.38638,0.8679 7.87741,3.78452 10.30976,6.69549 5.77169,6.90741 6.87598,15.94898 2.91514,23.86833 -0.73246,1.46449 -1.96837,3.40864 -2.74645,4.32033 -3.0013,3.51663 -7.26873,6.1744 -11.55333,7.19544 -2.21677,0.52827 -2.93061,0.53567 -49.87396,0.51676 -39.66868,-0.016 -47.9123,-0.0808 -49.34478,-0.38796 z"
           id="path1003" />
      </g>
    </g>
  </g>
</svg>
