<?xml version="1.0" standalone="no"?>
<!DOCTYPE svg PUBLIC "-//W3C//DTD SVG 20010904//EN"
 "http://www.w3.org/TR/2001/REC-SVG-20010904/DTD/svg10.dtd">
<svg version="1.0" xmlns="http://www.w3.org/2000/svg"
 width="700.000000pt" height="700.000000pt" viewBox="0 0 700.000000 700.000000"
 preserveAspectRatio="xMidYMid meet">
<metadata>
Created by potrace 1.14, written by Peter Selinger 2001-2017
</metadata>
<g transform="translate(0.000000,700.000000) scale(0.100000,-0.100000)"
fill="#000000" stroke="none">
<path d="M2419 5866 c-2 -2 -38 -6 -79 -10 -41 -3 -84 -8 -95 -10 -11 -2 -42
-7 -70 -10 -27 -4 -68 -11 -90 -16 -22 -5 -52 -11 -66 -14 -150 -26 -430 -125
-594 -208 -137 -70 -421 -253 -527 -340 -179 -146 -411 -413 -550 -633 -134
-212 -275 -540 -262 -610 20 -110 141 -170 231 -115 42 25 52 42 116 190 68
157 106 232 174 345 343 563 912 956 1558 1074 179 32 207 35 495 35 246 1
279 3 303 19 62 40 86 151 47 215 -21 35 -77 65 -140 77 -36 7 -445 16 -451
11z"/>
<path d="M2557 5284 c-1 -1 -47 -5 -102 -8 -55 -3 -109 -8 -120 -10 -11 -2
-40 -7 -65 -11 -142 -23 -272 -60 -450 -126 -143 -53 -391 -201 -533 -318
-173 -143 -288 -270 -412 -456 -126 -189 -215 -380 -215 -463 0 -73 72 -142
148 -142 92 0 114 23 206 206 62 124 148 268 195 326 126 156 291 305 460 413
71 45 244 135 286 148 11 3 47 15 80 27 79 27 197 57 260 66 28 3 52 8 55 9
10 6 184 17 310 19 167 3 210 26 235 123 15 58 5 95 -38 140 -44 47 -61 51
-250 57 -27 0 -49 0 -50 0z"/>
<path d="M4388 4685 c-2 -2 -34 -6 -73 -9 -85 -8 -123 -13 -195 -28 -30 -6
-60 -12 -66 -14 -166 -32 -438 -162 -607 -291 l-57 -44 -68 59 c-324 285 -759
386 -1169 271 -219 -61 -389 -162 -553 -328 -200 -202 -315 -431 -355 -706
-30 -209 3 -463 89 -669 l24 -59 -43 -56 c-85 -111 -171 -305 -190 -431 -14
-87 -13 -297 2 -379 66 -384 366 -712 752 -824 92 -27 148 -29 788 -31 211 0
383 -5 383 -9 0 -5 4 -5 10 -2 17 11 90 11 90 0 0 -7 3 -7 8 0 8 11 47 13 58
2 4 -4 13 -2 21 4 10 9 13 8 13 -2 0 -9 3 -10 8 -4 10 14 32 17 32 5 0 -6 10
-6 27 1 19 7 28 7 34 -2 6 -10 11 -10 23 0 9 8 16 9 16 3 0 -11 25 -10 36 1 4
3 15 2 25 -4 11 -6 19 -6 19 0 0 11 33 9 42 -3 4 -6 13 -4 22 3 9 8 16 9 16 3
0 -11 18 -11 35 0 6 4 17 3 25 -2 8 -5 22 -5 32 1 10 5 18 6 18 2 0 -4 16 -8
35 -9 18 0 32 3 30 7 -3 4 10 3 29 -1 18 -4 41 -3 50 2 9 5 16 5 16 1 0 -5 13
-9 29 -8 16 0 27 3 24 7 -2 5 0 8 6 8 5 0 11 -6 14 -12 3 -10 7 -10 20 1 12 9
17 10 17 2 0 -8 5 -9 19 -1 13 7 20 7 23 -1 2 -7 12 -7 31 0 20 8 27 7 27 -2
0 -8 4 -7 10 3 5 8 10 10 10 4 0 -12 79 -12 99 1 8 4 16 2 21 -5 4 -7 13 -9
19 -5 18 11 61 13 67 4 2 -5 16 -4 29 1 14 5 25 6 25 1 0 -10 26 -9 36 2 4 3
15 2 25 -3 11 -7 20 -7 24 0 3 5 11 7 18 5 28 -10 77 -13 77 -5 0 5 13 5 30 0
16 -5 32 -5 35 0 3 4 20 4 39 0 18 -4 40 -3 49 1 10 6 18 5 22 -1 4 -7 13 -7
26 0 10 6 19 7 19 3 0 -4 13 -8 30 -9 16 -1 27 3 24 7 -3 5 6 5 19 0 14 -6 27
-7 30 -4 9 8 87 9 87 0 0 -5 5 -5 12 -1 14 9 103 8 118 -1 5 -3 10 -2 10 4 0
7 8 7 24 1 13 -5 26 -6 29 -3 9 9 67 10 67 0 0 -4 5 -5 11 -1 6 3 217 8 468 9
480 3 517 5 621 37 235 73 437 244 550 468 137 272 140 569 7 837 -51 104 -91
158 -176 243 -112 111 -233 187 -366 230 -38 13 -73 26 -76 29 -4 3 -10 44
-13 91 -6 90 -17 162 -36 245 -6 28 -14 61 -16 75 -8 45 -56 183 -94 270 -129
299 -387 593 -675 767 -101 61 -435 205 -435 188 0 -3 -11 0 -26 5 -14 6 -39
12 -57 15 -18 3 -45 8 -62 12 -81 17 -386 38 -397 28z"/>
</g>
</svg>
